<?xml version="1.0" standalone="no"?>
<!DOCTYPE svg PUBLIC "-//W3C//DTD SVG 20010904//EN"
 "http://www.w3.org/TR/2001/REC-SVG-20010904/DTD/svg10.dtd">
<svg version="1.0" xmlns="http://www.w3.org/2000/svg"
 width="299.000000pt" height="276.000000pt" viewBox="0 0 299.000000 276.000000"
 preserveAspectRatio="xMidYMid meet">

<g transform="translate(0.000000,276.000000) scale(0.100000,-0.100000)"
fill="#000000" stroke="none">
<path d="M0 1758 c0 -625 4 -997 10 -988 7 12 11 10 18 -10 l9 -25 7 23 c4 12
12 20 17 16 6 -3 9 20 7 63 -3 65 -4 68 -31 73 l-27 5 50 63 c42 51 56 62 80
62 27 0 30 3 30 31 0 26 3 30 23 27 18 -2 21 -8 19 -30 -4 -33 8 -36 32 -9 17
19 18 19 37 0 14 -14 33 -19 77 -19 l57 0 48 -60 c54 -67 59 -85 22 -76 l-25
6 1 -87 c0 -65 3 -82 10 -65 10 25 29 21 29 -6 1 -12 5 -10 15 8 l14 25 10
-25 10 -25 7 22 c8 27 21 30 27 6 3 -10 5 45 5 122 1 203 1 205 15 205 9 0 11
-34 9 -146 -2 -101 1 -156 9 -177 12 -29 13 -29 21 -8 13 37 28 13 28 -45 0
-30 4 -54 9 -54 16 0 22 18 9 23 -10 3 -10 7 0 20 8 9 11 21 8 26 -4 5 4 25
17 45 l24 35 26 -40 c14 -21 21 -39 15 -39 -6 0 -3 -9 8 -21 12 -14 15 -22 7
-27 -29 -18 44 -61 105 -62 30 0 8 18 -28 24 -22 3 -40 9 -40 12 0 2 9 15 20
26 13 15 16 24 9 29 -8 4 -6 14 5 32 11 15 13 26 7 29 -6 1 2 22 17 45 l28 43
27 -41 c15 -22 24 -45 21 -50 -3 -6 2 -21 10 -34 9 -14 12 -25 6 -25 -20 0 -9
-19 13 -22 17 -2 22 -10 22 -32 0 -37 18 -44 39 -14 l16 22 16 -22 c10 -14 25
-22 45 -22 18 0 28 4 24 10 -3 6 -15 10 -26 10 -21 0 -26 15 -8 25 6 4 8 13 5
21 -3 7 -1 16 4 19 5 3 7 11 5 18 -3 7 3 23 13 35 l18 24 18 -26 c9 -15 14
-31 11 -36 -3 -5 0 -12 6 -15 5 -4 8 -13 5 -21 -10 -26 8 -15 61 38 l53 52 30
-29 c16 -16 30 -23 30 -17 0 7 7 12 15 12 10 0 15 -10 15 -31 0 -24 3 -30 16
-25 9 3 22 6 30 6 19 0 21 245 2 254 -8 3 6 22 37 50 l50 45 22 -21 c13 -12
23 -16 23 -10 0 7 5 12 10 12 6 0 10 -11 10 -25 0 -13 8 -29 18 -35 12 -8 13
-13 5 -16 -9 -4 -13 -37 -13 -115 l0 -109 30 0 c25 0 30 4 30 25 0 17 -6 25
-17 25 -14 0 -13 3 5 23 29 31 30 77 1 77 -18 0 -17 5 16 44 31 38 43 45 77
48 35 3 42 7 45 27 2 14 -2 28 -8 32 -8 5 0 22 26 53 29 35 41 44 47 34 8 -10
11 -10 15 0 10 24 23 11 23 -22 0 -19 4 -37 9 -41 5 -3 7 -21 4 -39 -4 -27 0
-40 17 -58 12 -12 30 -35 41 -49 18 -26 18 -27 -1 -32 -17 -4 -20 -14 -20 -69
l1 -63 24 28 c21 23 32 27 80 27 l55 0 0 39 c0 23 -5 41 -12 44 -11 3 18 48
73 111 5 5 15 4 24 -4 10 -8 15 -9 15 -1 0 6 9 11 19 11 17 0 19 -5 14 -35 -5
-29 -1 -41 17 -60 13 -14 18 -25 12 -25 -7 0 -12 -15 -12 -35 0 -27 11 -49 51
-97 49 -62 50 -63 25 -66 -24 -3 -26 -7 -26 -58 0 -53 0 -54 30 -54 l31 0 -3
117 c-2 88 -6 117 -15 115 -20 -3 -15 8 23 54 22 28 34 52 32 66 -2 18 2 23
17 21 10 -1 26 8 34 19 14 21 15 20 58 -28 l43 -49 0 68 c0 63 -1 67 -22 67
-19 1 -9 14 57 75 l79 75 38 -37 c29 -29 38 -33 38 -19 0 10 6 16 13 13 6 -2
11 -15 9 -29 -2 -18 5 -32 22 -46 30 -23 33 -32 11 -32 -13 0 -15 -35 -15
-253 l0 -253 46 -33 c37 -25 49 -30 55 -19 14 22 11 342 -3 357 -8 9 -9 15 -3
17 6 2 9 22 7 44 -3 32 -1 40 12 40 12 0 16 -10 16 -40 0 -22 5 -40 10 -40 7
0 7 -6 0 -20 -12 -22 -15 -325 -4 -385 4 -22 18 -60 31 -84 l23 -44 0 1232 0
1231 -1495 0 -1495 0 0 -1002z m2360 856 c0 -8 -6 -14 -14 -14 -18 0 -29 27
-13 33 16 6 27 -1 27 -19z m264 -19 c3 -8 12 -15 21 -15 8 0 15 -4 15 -10 0
-5 -4 -10 -10 -10 -5 0 -10 -8 -10 -18 0 -14 -8 -19 -30 -19 -21 0 -30 5 -30
17 0 9 -5 21 -12 28 -9 9 -7 12 10 12 13 0 22 6 22 15 0 8 4 15 9 15 5 0 11
-7 15 -15z m-1984 -26 c0 -12 -29 -24 -37 -16 -3 4 -3 13 0 21 6 16 37 11 37
-5z m880 -55 c0 -8 -7 -14 -15 -14 -15 0 -21 21 -9 33 10 9 24 -2 24 -19z
m-1280 -18 c0 -3 -4 -8 -10 -11 -5 -3 -10 -1 -10 4 0 6 5 11 10 11 6 0 10 -2
10 -4z m493 -152 c-7 -18 -33 -18 -33 -1 0 19 10 27 25 20 8 -2 11 -11 8 -19z
m1257 16 c0 -5 9 -10 20 -10 21 0 27 -15 10 -25 -5 -3 -10 -14 -10 -23 0 -12
-8 -17 -30 -17 -20 0 -30 5 -30 16 0 8 -6 21 -12 27 -10 10 -8 14 10 18 12 4
22 10 22 15 0 5 5 9 10 9 6 0 10 -4 10 -10z m-1005 -50 c17 0 20 -16 5 -25 -6
-4 -8 -16 -4 -27 5 -17 3 -18 -13 -10 -12 7 -25 7 -37 0 -16 -9 -18 -8 -13 11
3 11 1 24 -4 27 -14 9 -10 24 6 24 9 0 18 7 22 16 5 15 7 15 15 0 5 -9 16 -16
23 -16z m475 0 c0 -5 -4 -10 -10 -10 -5 0 -10 5 -10 10 0 6 5 10 10 10 6 0 10
-4 10 -10z m1200 -10 c0 -5 -4 -10 -10 -10 -5 0 -10 5 -10 10 0 6 5 10 10 10
6 0 10 -4 10 -10z m-2560 -10 c0 -5 -2 -10 -4 -10 -3 0 -8 5 -11 10 -3 6 -1
10 4 10 6 0 11 -4 11 -10z m2770 -120 c0 -5 -4 -10 -10 -10 -5 0 -10 5 -10 10
0 6 5 10 10 10 6 0 10 -4 10 -10z m-826 -41 c-8 -14 -34 -11 -34 4 0 8 3 17 7
20 9 9 34 -13 27 -24z m-871 -5 c-7 -18 -33 -18 -33 -1 0 19 10 27 25 20 8 -2
11 -11 8 -19z m474 10 c20 -6 19 -8 -20 -38 -26 -19 -53 -55 -72 -91 -26 -50
-30 -69 -29 -134 0 -58 5 -86 22 -118 64 -123 176 -177 317 -155 33 6 62 8 64
6 10 -9 -55 -65 -113 -95 -55 -30 -69 -34 -146 -34 -72 0 -94 4 -142 27 -108
50 -189 159 -203 273 -18 144 79 298 217 346 58 20 72 22 105 13z m638 -34 c3
-5 1 -10 -4 -10 -6 0 -11 5 -11 10 0 6 2 10 4 10 3 0 8 -4 11 -10z m-1533 -50
c17 0 19 -3 10 -12 -7 -7 -12 -23 -12 -35 0 -20 -3 -22 -18 -14 -11 6 -24 6
-34 0 -13 -7 -15 -5 -11 10 3 10 0 22 -6 25 -16 10 -13 26 4 26 9 0 18 7 22
16 5 15 7 15 15 0 5 -9 19 -16 30 -16z m1901 -116 c-7 -18 -33 -18 -33 -1 0
19 10 27 25 20 8 -2 11 -11 8 -19z m-278 -14 c16 0 17 -2 3 -17 -9 -10 -14
-23 -12 -28 3 -7 -11 -11 -31 -11 -20 0 -34 4 -32 11 3 5 0 18 -5 28 -6 12 -5
17 6 17 7 0 17 8 21 18 6 16 7 16 19 0 7 -10 21 -18 31 -18z m-2159 -60 c14 0
15 -3 6 -12 -7 -7 -12 -19 -12 -28 0 -11 -10 -16 -35 -17 -19 -1 -33 3 -30 8
3 5 1 18 -5 29 -9 16 -8 20 5 20 9 0 18 7 22 16 6 16 7 16 18 0 7 -9 20 -16
31 -16z m2254 -170 c0 -5 -4 -10 -10 -10 -5 0 -10 5 -10 10 0 6 5 10 10 10 6
0 10 -4 10 -10z m-332 -12 c-3 -7 -11 -13 -18 -13 -7 0 -15 6 -17 13 -3 7 4
12 17 12 13 0 20 -5 18 -12z m-1868 -168 c0 -5 -5 -10 -11 -10 -5 0 -7 5 -4
10 3 6 8 10 11 10 2 0 4 -4 4 -10z m885 -140 c17 0 20 -16 5 -25 -6 -4 -8 -16
-4 -27 5 -17 3 -18 -13 -10 -12 7 -25 7 -37 0 -15 -9 -17 -7 -12 10 4 11 2 23
-4 27 -7 4 -3 15 12 29 17 16 25 18 31 9 4 -7 15 -13 22 -13z m1139 -5 c3 -8
13 -15 23 -15 13 0 14 -3 5 -12 -7 -7 -12 -19 -12 -28 0 -11 -9 -16 -27 -15
-36 0 -50 37 -25 65 21 23 28 24 36 5z m-656 -118 c2 -10 -3 -17 -11 -17 -16
0 -30 24 -19 34 10 10 27 1 30 -17z m-1015 -101 c19 -28 13 -36 -25 -36 -30 0
-34 10 -18 41 14 25 24 24 43 -5z m2321 -158 c27 -38 20 -48 -29 -48 -50 0
-50 1 -32 33 23 42 39 46 61 15z"/>
<path d="M2665 1090 c-3 -5 -1 -10 4 -10 6 0 11 5 11 10 0 6 -2 10 -4 10 -3 0
-8 -4 -11 -10z"/>
<path d="M2690 1090 c0 -5 5 -10 11 -10 5 0 7 5 4 10 -3 6 -8 10 -11 10 -2 0
-4 -4 -4 -10z"/>
<path d="M2666 1061 c-4 -7 -5 -15 -2 -18 9 -9 19 4 14 18 -4 11 -6 11 -12 0z"/>
<path d="M2690 1054 c0 -8 5 -12 10 -9 6 4 8 11 5 16 -9 14 -15 11 -15 -7z"/>
<path d="M270 1001 c0 -12 6 -21 15 -21 8 0 15 4 15 9 0 5 -7 14 -15 21 -13
10 -15 9 -15 -9z"/>
<path d="M236 995 c-3 -9 0 -15 9 -15 8 0 15 7 15 15 0 8 -4 15 -9 15 -5 0
-11 -7 -15 -15z"/>
<path d="M1845 1000 c-3 -5 -1 -10 4 -10 6 0 11 5 11 10 0 6 -2 10 -4 10 -3 0
-8 -4 -11 -10z"/>
<path d="M1870 1000 c0 -5 5 -10 11 -10 5 0 7 5 4 10 -3 6 -8 10 -11 10 -2 0
-4 -4 -4 -10z"/>
<path d="M2610 980 c0 -16 7 -20 35 -20 28 0 35 4 35 20 0 16 -7 20 -35 20
-28 0 -35 -4 -35 -20z"/>
<path d="M2690 980 c0 -16 7 -20 35 -20 28 0 35 4 35 20 0 16 -7 20 -35 20
-28 0 -35 -4 -35 -20z"/>
<path d="M1840 965 c0 -8 5 -15 10 -15 6 0 10 7 10 15 0 8 -4 15 -10 15 -5 0
-10 -7 -10 -15z"/>
<path d="M1870 964 c0 -8 5 -12 10 -9 6 4 8 11 5 16 -9 14 -15 11 -15 -7z"/>
<path d="M1735 930 c-3 -5 -1 -10 4 -10 6 0 11 5 11 10 0 6 -2 10 -4 10 -3 0
-8 -4 -11 -10z"/>
<path d="M1760 930 c0 -5 5 -10 11 -10 5 0 7 5 4 10 -3 6 -8 10 -11 10 -2 0
-4 -4 -4 -10z"/>
<path d="M1840 930 c0 -5 5 -10 10 -10 6 0 10 5 10 10 0 6 -4 10 -10 10 -5 0
-10 -4 -10 -10z"/>
<path d="M1870 930 c0 -5 5 -10 11 -10 5 0 7 5 4 10 -3 6 -8 10 -11 10 -2 0
-4 -4 -4 -10z"/>
<path d="M2610 920 c0 -16 7 -20 35 -20 28 0 35 4 35 20 0 16 -7 20 -35 20
-28 0 -35 -4 -35 -20z"/>
<path d="M2690 920 c0 -16 7 -20 35 -20 28 0 35 4 35 20 0 16 -7 20 -35 20
-28 0 -35 -4 -35 -20z"/>
<path d="M1520 911 c-10 -20 -14 -94 -5 -103 3 -2 18 -3 35 0 29 4 30 6 30 57
0 39 -4 54 -16 59 -25 10 -33 7 -44 -13z"/>
<path d="M110 895 c0 -8 7 -15 15 -15 8 0 15 4 15 9 0 5 -7 11 -15 15 -9 3
-15 0 -15 -9z"/>
<path d="M160 895 c0 -8 7 -15 15 -15 8 0 15 4 15 9 0 5 -7 11 -15 15 -9 3
-15 0 -15 -9z"/>
<path d="M243 903 c-18 -7 -16 -23 2 -23 8 0 15 7 15 15 0 8 -1 15 -2 14 -2 0
-9 -3 -15 -6z"/>
<path d="M293 903 c-18 -7 -16 -23 2 -23 8 0 15 7 15 15 0 8 -1 15 -2 14 -2 0
-9 -3 -15 -6z"/>
<path d="M1730 901 c0 -6 5 -13 10 -16 6 -3 10 1 10 9 0 9 -4 16 -10 16 -5 0
-10 -4 -10 -9z"/>
<path d="M1760 900 c0 -5 5 -10 10 -10 6 0 10 5 10 10 0 6 -4 10 -10 10 -5 0
-10 -4 -10 -10z"/>
<path d="M2465 890 c-3 -5 -1 -10 4 -10 6 0 11 5 11 10 0 6 -2 10 -4 10 -3 0
-8 -4 -11 -10z"/>
<path d="M2495 890 c3 -5 11 -10 16 -10 6 0 7 5 4 10 -3 6 -11 10 -16 10 -6 0
-7 -4 -4 -10z"/>
<path d="M1720 860 c0 -5 5 -10 10 -10 6 0 10 5 10 10 0 6 -4 10 -10 10 -5 0
-10 -4 -10 -10z"/>
<path d="M1815 860 c3 -5 8 -10 11 -10 2 0 4 5 4 10 0 6 -5 10 -11 10 -5 0 -7
-4 -4 -10z"/>
<path d="M2200 841 c0 -12 5 -21 10 -21 6 0 10 6 10 14 0 8 -4 18 -10 21 -5 3
-10 -3 -10 -14z"/>
<path d="M2450 856 c0 -2 7 -9 15 -16 12 -10 15 -10 15 4 0 9 -7 16 -15 16 -8
0 -15 -2 -15 -4z"/>
<path d="M2500 849 c0 -5 5 -7 10 -4 6 3 10 8 10 11 0 2 -4 4 -10 4 -5 0 -10
-5 -10 -11z"/>
<path d="M2165 841 c-6 -11 9 -23 19 -14 9 9 7 23 -3 23 -6 0 -12 -4 -16 -9z"/>
<path d="M2617 834 c-4 -4 -7 -16 -7 -26 0 -14 8 -18 36 -18 31 0 35 3 32 23
-2 15 -11 23 -28 25 -14 2 -29 0 -33 -4z"/>
<path d="M2695 832 c-3 -3 -5 -14 -5 -24 0 -14 8 -18 36 -18 31 0 35 3 32 23
-2 16 -10 22 -30 23 -15 1 -30 -1 -33 -4z"/>
<path d="M117 813 c-13 -12 -7 -43 8 -43 9 0 15 9 15 25 0 24 -10 32 -23 18z"/>
<path d="M160 794 c0 -31 23 -28 28 4 2 15 -2 22 -12 22 -11 0 -16 -9 -16 -26z"/>
<path d="M230 795 c0 -16 6 -25 15 -25 9 0 15 9 15 25 0 16 -6 25 -15 25 -9 0
-15 -9 -15 -25z"/>
<path d="M280 795 c0 -16 6 -25 15 -25 9 0 15 9 15 25 0 16 -6 25 -15 25 -9 0
-15 -9 -15 -25z"/>
<path d="M360 805 c0 -8 5 -15 10 -15 6 0 10 7 10 15 0 8 -4 15 -10 15 -5 0
-10 -7 -10 -15z"/>
<path d="M390 805 c0 -8 5 -15 10 -15 6 0 10 7 10 15 0 8 -4 15 -10 15 -5 0
-10 -7 -10 -15z"/>
<path d="M1895 800 c-3 -5 -1 -10 4 -10 6 0 11 5 11 10 0 6 -2 10 -4 10 -3 0
-8 -4 -11 -10z"/>
<path d="M1922 780 c0 -19 2 -27 5 -17 2 9 2 25 0 35 -3 9 -5 1 -5 -18z"/>
<path d="M2162 798 c6 -18 25 -21 25 -3 0 8 -7 15 -14 15 -8 0 -13 -5 -11 -12z"/>
<path d="M2200 795 c0 -8 5 -15 10 -15 6 0 10 7 10 15 0 8 -4 15 -10 15 -5 0
-10 -7 -10 -15z"/>
<path d="M2617 773 c-4 -3 -7 -15 -7 -25 0 -14 8 -18 36 -18 31 0 35 3 32 22
-3 21 -46 37 -61 21z"/>
<path d="M2697 773 c-4 -3 -7 -15 -7 -25 0 -14 8 -18 36 -18 31 0 35 3 32 22
-3 21 -46 37 -61 21z"/>
<path d="M1890 760 c0 -5 5 -10 10 -10 6 0 10 5 10 10 0 6 -4 10 -10 10 -5 0
-10 -4 -10 -10z"/>
<path d="M2026 755 c-3 -9 0 -15 9 -15 9 0 12 6 9 15 -4 8 -7 15 -9 15 -2 0
-5 -7 -9 -15z"/>
<path d="M2060 750 c0 -19 3 -21 12 -12 9 9 9 15 0 24 -9 9 -12 7 -12 -12z"/>
<path d="M2166 763 c-9 -9 -7 -33 3 -33 12 0 22 28 12 34 -5 3 -11 3 -15 -1z"/>
<path d="M2200 751 c0 -12 5 -21 10 -21 6 0 10 6 10 14 0 8 -4 18 -10 21 -5 3
-10 -3 -10 -14z"/>
<path d="M1560 737 c0 -17 5 -27 14 -27 24 0 27 16 6 35 -19 18 -20 17 -20 -8z"/>
<path d="M2420 745 c0 -8 5 -15 10 -15 6 0 10 7 10 15 0 8 -4 15 -10 15 -5 0
-10 -7 -10 -15z"/>
<path d="M2450 745 c0 -8 5 -15 10 -15 6 0 10 7 10 15 0 8 -4 15 -10 15 -5 0
-10 -7 -10 -15z"/>
<path d="M2502 749 c2 -6 8 -10 13 -10 5 0 11 4 13 10 2 6 -4 11 -13 11 -9 0
-15 -5 -13 -11z"/>
<path d="M2540 745 c0 -8 5 -15 10 -15 6 0 10 7 10 15 0 8 -4 15 -10 15 -5 0
-10 -7 -10 -15z"/>
<path d="M1500 729 c-14 -25 -8 -33 19 -24 24 7 29 45 6 45 -8 0 -19 -9 -25
-21z"/>
<path d="M1758 733 c7 -3 16 -2 19 1 4 3 -2 6 -13 5 -11 0 -14 -3 -6 -6z"/>
<path d="M1890 725 c0 -8 5 -15 10 -15 6 0 10 7 10 15 0 8 -4 15 -10 15 -5 0
-10 -7 -10 -15z"/>
<path d="M1921 724 c0 -11 3 -14 6 -6 3 7 2 16 -1 19 -3 4 -6 -2 -5 -13z"/>
<path d="M31 714 c0 -11 3 -14 6 -6 3 7 2 16 -1 19 -3 4 -6 -2 -5 -13z"/>
<path d="M240 720 c0 -5 5 -10 10 -10 6 0 10 5 10 10 0 6 -4 10 -10 10 -5 0
-10 -4 -10 -10z"/>
<path d="M461 714 c0 -11 3 -14 6 -6 3 7 2 16 -1 19 -3 4 -6 -2 -5 -13z"/>
<path d="M501 714 c0 -11 3 -14 6 -6 3 7 2 16 -1 19 -3 4 -6 -2 -5 -13z"/>
<path d="M540 715 c0 -8 5 -15 10 -15 6 0 10 7 10 15 0 8 -4 15 -10 15 -5 0
-10 -7 -10 -15z"/>
<path d="M631 714 c0 -11 3 -14 6 -6 3 7 2 16 -1 19 -3 4 -6 -2 -5 -13z"/>
<path d="M2020 705 c0 -8 5 -15 10 -15 6 0 10 7 10 15 0 8 -4 15 -10 15 -5 0
-10 -7 -10 -15z"/>
<path d="M2060 705 c0 -8 5 -15 10 -15 6 0 10 7 10 15 0 8 -4 15 -10 15 -5 0
-10 -7 -10 -15z"/>
<path d="M2420 705 c0 -8 5 -15 10 -15 6 0 10 7 10 15 0 8 -4 15 -10 15 -5 0
-10 -7 -10 -15z"/>
<path d="M2450 705 c0 -8 5 -15 10 -15 6 0 10 7 10 15 0 8 -4 15 -10 15 -5 0
-10 -7 -10 -15z"/>
<path d="M2503 705 c0 -8 7 -15 15 -15 7 0 12 5 10 12 -6 18 -25 21 -25 3z"/>
<path d="M2540 705 c0 -8 5 -15 10 -15 6 0 10 7 10 15 0 8 -4 15 -10 15 -5 0
-10 -7 -10 -15z"/>
<path d="M2110 660 c0 -5 7 -10 15 -10 8 0 15 5 15 10 0 6 -7 10 -15 10 -8 0
-15 -4 -15 -10z"/>
<path d="M2160 660 c0 -5 7 -10 15 -10 8 0 15 5 15 10 0 6 -7 10 -15 10 -8 0
-15 -4 -15 -10z"/>
<path d="M2610 650 c0 -16 7 -20 35 -20 28 0 35 4 35 20 0 16 -7 20 -35 20
-28 0 -35 -4 -35 -20z"/>
<path d="M2690 650 c0 -16 7 -20 35 -20 28 0 35 4 35 20 0 16 -7 20 -35 20
-28 0 -35 -4 -35 -20z"/>
<path d="M2420 645 c0 -8 5 -15 10 -15 6 0 10 7 10 15 0 8 -4 15 -10 15 -5 0
-10 -7 -10 -15z"/>
<path d="M2450 645 c0 -8 5 -15 10 -15 6 0 10 7 10 15 0 8 -4 15 -10 15 -5 0
-10 -7 -10 -15z"/>
<path d="M2500 645 c0 -8 4 -15 9 -15 5 0 11 7 15 15 3 9 0 15 -9 15 -8 0 -15
-7 -15 -15z"/>
<path d="M2540 645 c0 -8 5 -15 10 -15 6 0 10 7 10 15 0 8 -4 15 -10 15 -5 0
-10 -7 -10 -15z"/>
<path d="M930 630 c0 -5 9 -10 20 -10 11 0 20 5 20 10 0 6 -9 10 -20 10 -11 0
-20 -4 -20 -10z"/>
<path d="M1180 630 c0 -5 9 -10 20 -10 11 0 20 5 20 10 0 6 -9 10 -20 10 -11
0 -20 -4 -20 -10z"/>
<path d="M2420 605 c0 -8 5 -15 10 -15 6 0 10 7 10 15 0 8 -4 15 -10 15 -5 0
-10 -7 -10 -15z"/>
<path d="M2450 605 c0 -8 5 -15 10 -15 6 0 10 7 10 15 0 8 -4 15 -10 15 -5 0
-10 -7 -10 -15z"/>
<path d="M2500 606 c0 -9 7 -16 16 -16 9 0 14 5 12 12 -6 18 -28 21 -28 4z"/>
<path d="M2540 605 c0 -8 5 -15 10 -15 6 0 10 7 10 15 0 8 -4 15 -10 15 -5 0
-10 -7 -10 -15z"/>
<path d="M2702 612 c-7 -2 -12 -12 -12 -23 0 -15 7 -19 36 -19 31 0 35 3 32
22 -3 21 -28 30 -56 20z"/>
<path d="M2610 590 c0 -16 7 -20 35 -20 28 0 35 4 35 20 0 16 -7 20 -35 20
-28 0 -35 -4 -35 -20z"/>
<path d="M1080 588 c0 -9 5 -20 11 -23 17 -11 20 0 4 21 -13 17 -14 17 -15 2z"/>
<path d="M1286 581 c-3 -5 3 -20 15 -32 l20 -24 -15 26 c-9 14 -13 29 -9 32 3
4 4 7 0 7 -3 0 -8 -4 -11 -9z"/>
</g>
</svg>
